<svg xmlns="http://www.w3.org/2000/svg" width="157.403" height="27.091">
  <defs/>
  <path class="a" d="M42.462 27.025a10.761 10.761 0 01-7.748-2.933 10.177 10.177 0 01-3.068-7.714 10.9 10.9 0 013.119-7.853 10.341 10.341 0 017.768-3.236 9.408 9.408 0 017.765 3.357q2.509 3.188 2.441 8.714H36.562a5.589 5.589 0 005.73 5.662 6.482 6.482 0 003.561-1.018 6.362 6.362 0 002.373-2.644l4.069 1.9a8.694 8.694 0 01-3.462 3.932 11.431 11.431 0 01-6.371 1.833zm-.068-17.868a5.637 5.637 0 00-4.238 1.763 4.2 4.2 0 00-1.39 2.814h11.223a4.288 4.288 0 00-1.056-2.681 5.54 5.54 0 00-4.539-1.899zM63.11 26.514L54.668 5.696h4.95l5.7 14.478 5.459-14.478h4.916l-8.341 20.818zM89.93 10.24a6.367 6.367 0 00-2.1-.441 3.672 3.672 0 00-3.29 1.831 6.5 6.5 0 00-.949 3.56v11.325H78.98V5.697h4.407v3.018a5.544 5.544 0 015.493-3.526 6.631 6.631 0 012.543.475zM103.153 27.025a10.761 10.761 0 01-7.748-2.933 10.179 10.179 0 01-3.068-7.714 10.9 10.9 0 013.119-7.853 10.344 10.344 0 017.765-3.238 9.408 9.408 0 017.765 3.357q2.509 3.188 2.442 8.714H97.254a5.589 5.589 0 005.73 5.662 6.48 6.48 0 003.56-1.018 6.355 6.355 0 002.373-2.644l4.069 1.9a8.7 8.7 0 01-3.459 3.933 11.432 11.432 0 01-6.374 1.834zm-.067-17.868a5.636 5.636 0 00-4.238 1.763 4.2 4.2 0 00-1.39 2.814h11.222a4.289 4.289 0 00-1.051-2.679 5.541 5.541 0 00-4.543-1.901zM129.7 26.515l-7.454-10.613v10.613h-4.712V0h4.712v14l6.985-8.307h5.595l-8.18 9.226 8.815 11.6z"/>
  <g>
    <path class="a" d="M6.082 11.258l-1.881-6.13H2.237A2.237 2.237 0 000 7.358v7.95l4.468-1.165a2.278 2.278 0 001.614-2.885zM19.73 5.124H8.612l1.554 5.066a2.522 2.522 0 003.017 1.681l8.786-2.291V7.358a2.237 2.237 0 00-2.239-2.234zM12.806 18.796l2.544 8.295h4.38a2.237 2.237 0 002.237-2.237V13.939l-7.546 1.969a2.277 2.277 0 00-1.615 2.888z"/>
    <path d="M10.625 26.2a.042.042 0 00.04 0l-1.831-6.115a2.236 2.236 0 00-.074-.248v-.012a2.591 2.591 0 00-1.608-1.579l-.037-.011-.054-.016a2.445 2.445 0 00-1.358-.04L0 19.666v5.187a2.237 2.237 0 002.237 2.237h8.7c-.092-.3-.183-.6-.274-.891a.042.042 0 01-.038.001z" fill="#459b23"/>
  </g>
  <g>
    <path d="M151.592 11.596a7.8 7.8 0 011.067 2.411 6.578 6.578 0 00-1.067-2.411z" fill="none"/>
    <path class="a" d="M153.063 5.696v2.713a5.852 5.852 0 00-2.68-2.272 9.49 9.49 0 00-4.035-.848 9.134 9.134 0 00-7.357 3.255 11.567 11.567 0 00-2.543 7.662 11.294 11.294 0 002.7 7.764 9.055 9.055 0 007.136 3.052 7.673 7.673 0 006.783-3.323v2.814h4.34V5.696zm-6.351 17.71c-3.429 0-6.209-3.27-6.209-7.3s2.78-7.3 6.209-7.3a5.919 5.919 0 014.881 2.8 6.578 6.578 0 011.067 2.411 8.509 8.509 0 01.262 2.095c-.001 4.024-2.781 7.294-6.21 7.294z"/>
  </g>
</svg>